<svg width="17" height="18" viewBox="0 0 17 18" fill="none" xmlns="http://www.w3.org/2000/svg">
<path d="M8.5 0.275269C9.62717 0.275269 10.7082 0.723035 11.5052 1.52006C12.3022 2.31709 12.75 3.3981 12.75 4.52527C12.75 5.65244 12.3022 6.73344 11.5052 7.53047C10.7082 8.3275 9.62717 8.77527 8.5 8.77527C7.37283 8.77527 6.29183 8.3275 5.4948 7.53047C4.69777 6.73344 4.25 5.65244 4.25 4.52527C4.25 3.3981 4.69777 2.31709 5.4948 1.52006C6.29183 0.723035 7.37283 0.275269 8.5 0.275269ZM8.5 10.9003C13.1962 10.9003 17 12.8021 17 15.1503V17.2753H0V15.1503C0 12.8021 3.80375 10.9003 8.5 10.9003Z" fill="#212325" fill-opacity="0.4"/>
</svg>
