<svg width="69" height="71" viewBox="0 0 69 71" fill="none" xmlns="http://www.w3.org/2000/svg">
<rect x="0.814705" y="2.81201" width="68" height="68.1029" rx="34" fill="#6E9500" fill-opacity="0.1"/>
<path d="M41.4351 48.5719L41.7734 55.4324L34.834 50.61L27.8557 55.437L28.1943 48.5719H25.2635L24.7584 58.817H28.1148L34.8302 54.172L41.5144 58.817H44.871L44.3659 48.5719H41.4351ZM49.3965 27.6165L49.1958 23.2208L45.4897 20.8491L43.1176 17.1427L38.7218 16.9415L34.8147 14.918L30.9076 16.9419L26.5118 17.1432L24.1397 20.8491L20.4336 23.2208L20.2329 27.6165L18.2089 31.5237L20.2329 35.431L20.4342 39.8266L24.1397 42.1983L26.5114 45.9048L30.9072 46.1056L34.8147 48.1295L38.7218 46.1056L43.1176 45.9048L45.4894 42.1983L49.1957 39.827L49.3965 35.4314L51.4205 31.5241L49.3965 27.6165ZM46.5017 34.6553L46.3404 38.1784L43.3698 40.0792L41.469 43.0498L37.9459 43.2108L34.8147 44.8329L31.6832 43.2108L28.1601 43.0498L26.2592 40.0792L23.289 38.1784L23.1281 34.6553L21.5052 31.5237L23.1277 28.3927L23.289 24.8692L26.2592 22.9683L28.1601 19.9978L31.6832 19.8368L34.8147 18.2146L37.9462 19.8367L41.4694 19.9977L43.3702 22.9682L46.3404 24.8692L46.5013 28.3923L48.1242 31.5237L46.5017 34.6553Z" fill="#FFB800"/>
<path d="M39.6131 26.641C39.8459 26.4194 40.1556 26.2969 40.477 26.2994C40.7983 26.3018 41.1062 26.429 41.3355 26.654C41.5649 26.8791 41.6979 27.1845 41.7063 27.5058C41.7148 27.827 41.5982 28.139 41.3811 28.3759L33.3862 37.9754C33.2729 38.0975 33.136 38.1955 32.9839 38.2635C32.8319 38.3316 32.6676 38.3682 32.501 38.3713C32.3344 38.3744 32.169 38.3438 32.0144 38.2815C31.8599 38.2192 31.7196 38.1263 31.6018 38.0085L27.2299 33.6366C27.1082 33.5232 27.0105 33.3864 26.9428 33.2344C26.8751 33.0824 26.8387 32.9183 26.8357 32.7519C26.8328 32.5855 26.8634 32.4202 26.9257 32.2659C26.988 32.1116 27.0808 31.9715 27.1985 31.8538C27.3161 31.7361 27.4563 31.6434 27.6106 31.581C27.7649 31.5187 27.9302 31.4881 28.0966 31.491C28.263 31.494 28.4271 31.5304 28.5791 31.5981C28.7311 31.6658 28.8679 31.7635 28.9813 31.8852L32.4411 35.3434L39.5818 26.6774C39.5921 26.6646 39.6031 26.6525 39.6148 26.641H39.6131Z" fill="#FFB800"/>
<path d="M65.5052 21.7454C63.2123 16.317 59.6194 11.5759 55.0625 7.96553C50.5056 4.35517 45.1337 1.9935 39.4491 1.10141C33.7645 0.209321 27.953 0.81596 22.5581 2.86459C17.1632 4.91322 12.3612 8.3369 8.60113 12.8154C4.84108 17.294 2.24587 22.681 1.05822 28.4728C-0.129438 34.2645 0.129269 40.2718 1.81014 45.9326C3.49102 51.5934 6.53914 56.723 10.6694 60.8414C14.7997 64.9599 19.8772 67.9327 25.4271 69.4818L25.8354 67.9316C20.5403 66.4535 15.6958 63.6171 11.755 59.6877C7.81428 55.7583 4.90604 50.8641 3.3023 45.4631C1.69857 40.062 1.45173 34.3305 2.58488 28.8045C3.71803 23.2786 6.19415 18.1387 9.78165 13.8657C13.3691 9.59271 17.9508 6.32615 23.0981 4.37153C28.2455 2.41692 33.7903 1.83812 39.214 2.68927C44.6377 3.54042 49.7631 5.7937 54.1108 9.23839C58.4586 12.6831 61.8866 17.2066 64.0743 22.3859L65.5052 21.7454Z" fill="#6E9500"/>
</svg>
