<svg width="69" height="71" viewBox="0 0 69 71" fill="none" xmlns="http://www.w3.org/2000/svg">
<g opacity="0.1">
<rect x="0.650238" y="1.9187" width="68" height="68.1029" rx="34" fill="#6E9500"/>
</g>
<path d="M65.5052 21.3521C63.2123 15.9237 59.6194 11.1826 55.0625 7.57222C50.5056 3.96185 45.1337 1.60019 39.4491 0.708099C33.7645 -0.183989 27.953 0.422649 22.5581 2.47128C17.1632 4.51991 12.3612 7.94359 8.60113 12.4221C4.84108 16.9007 2.24587 22.2877 1.05822 28.0795C-0.129438 33.8712 0.129269 39.8784 1.81014 45.5393C3.49102 51.2001 6.53914 56.3297 10.6694 60.4481C14.7997 64.5665 19.8772 67.5394 25.4271 69.0885L25.8354 67.5383C20.5403 66.0602 15.6958 63.2238 11.755 59.2944C7.81428 55.365 4.90604 50.4708 3.3023 45.0698C1.69857 39.6687 1.45173 33.9372 2.58488 28.4112C3.71803 22.8853 6.19415 17.7454 9.78165 13.4724C13.3691 9.1994 17.9508 5.93284 23.0981 3.97822C28.2455 2.02361 33.7903 1.44481 39.214 2.29596C44.6377 3.14711 49.7631 5.40039 54.1108 8.84508C58.4586 12.2898 61.8866 16.8133 64.0743 21.9926L65.5052 21.3521Z" fill="#6E9500"/>
<path d="M48 40.5177C48.0023 39.401 47.7172 38.3016 47.1707 37.3196C46.6242 36.3376 45.8337 35.5042 44.8712 34.8954C43.9086 34.2866 42.8047 33.9217 41.6601 33.8341C40.5154 33.7465 39.3664 33.9388 38.3178 34.3937C37.2692 34.8485 36.3543 35.5513 35.6565 36.4381C34.9587 37.3248 34.5002 38.3673 34.3229 39.4705C34.1455 40.5738 34.2549 41.7026 34.641 42.7542C35.0271 43.8058 35.6777 44.7466 36.5336 45.491V53.899L41.1201 51.787L45.7067 53.899V45.491C46.4276 44.8659 47.0045 44.0997 47.3997 43.2426C47.7949 42.3856 47.9995 41.457 48 40.5177ZM43.4134 50.3752L41.1201 49.3192L38.8268 50.3752V46.818C40.3089 47.3385 41.9314 47.3385 43.4134 46.818V50.3752ZM41.1201 44.9781C40.213 44.9781 39.3262 44.7165 38.572 44.2264C37.8177 43.7363 37.2298 43.0396 36.8827 42.2246C36.5355 41.4096 36.4447 40.5127 36.6217 39.6475C36.7987 38.7822 37.2355 37.9875 37.8769 37.3637C38.5184 36.7398 39.3356 36.315 40.2253 36.1429C41.115 35.9708 42.0372 36.0591 42.8753 36.3967C43.7134 36.7343 44.4297 37.3061 44.9337 38.0396C45.4377 38.7731 45.7067 39.6355 45.7067 40.5177C45.7052 41.7002 45.2215 42.8339 44.3616 43.67C43.5018 44.5062 42.3361 44.9766 41.1201 44.9781Z" fill="#CE4CCE"/>
<path d="M44.9329 23.985H41.4929V22.8699C41.4911 22.2789 41.2489 21.7127 40.8192 21.2948C40.3896 20.8769 39.8073 20.6414 39.1996 20.6396H30.0265C29.4188 20.6414 28.8366 20.8769 28.4069 21.2948C27.9772 21.7127 27.735 22.2789 27.7332 22.8699V23.985H24.2933C23.6856 23.9867 23.1034 24.2223 22.6737 24.6401C22.244 25.058 22.0018 25.6242 22 26.2152V49.6325C22.0018 50.2234 22.244 50.7897 22.6737 51.2076C23.1034 51.6254 23.6856 51.861 24.2933 51.8627H34.6131V49.6325H24.2933V26.2152H27.7332V29.5605H41.4929V26.2152H44.9329V31.7907H47.2262V26.2152C47.2243 25.6242 46.9821 25.058 46.5525 24.6401C46.1228 24.2223 45.5405 23.9867 44.9329 23.985ZM39.1996 27.3303H30.0265V22.8699H39.1996V27.3303Z" fill="#CE4CCE"/>
</svg>
