<svg width="70" height="71" viewBox="0 0 70 71" fill="none" xmlns="http://www.w3.org/2000/svg">
<rect x="1.65023" y="2.81201" width="68" height="68.1029" rx="34" fill="#6E9500" fill-opacity="0.1"/>
<path d="M34.423 28.9212C34.9473 28.9212 35.4501 28.7175 35.8209 28.3549C36.1916 27.9923 36.3999 27.5004 36.3999 26.9876C36.3999 26.4748 36.1916 25.983 35.8209 25.6204C35.4501 25.2578 34.9473 25.0541 34.423 25.0541C33.8987 25.0541 33.3958 25.2578 33.0251 25.6204C32.6543 25.983 32.446 26.4748 32.446 26.9876C32.446 27.5004 32.6543 27.9923 33.0251 28.3549C33.3958 28.7175 33.8987 28.9212 34.423 28.9212ZM35.596 20.2782C35.2562 20.0333 34.8451 19.9011 34.423 19.9011C34.0008 19.9011 33.5898 20.0333 33.25 20.2782L20.7294 29.3079C19.1953 30.4152 19.9953 32.7973 21.9024 32.7973H22.5614V42.1324C21.7806 42.4506 21.1136 42.9878 20.6445 43.6762C20.1754 44.3647 19.9252 45.1735 19.9255 46.0008V47.9344C19.9255 48.468 20.3683 48.9011 20.9139 48.9011H47.932C48.1942 48.9011 48.4456 48.7993 48.631 48.618C48.8164 48.4367 48.9205 48.1908 48.9205 47.9344V46.0008C48.9205 45.1737 48.6702 44.3652 48.2011 43.677C47.732 42.9888 47.0652 42.4518 46.2846 42.1337V32.7973H46.9422C48.8506 32.7973 49.6506 30.4152 48.1152 29.3079L35.596 20.2782ZM24.5383 41.8115V32.7973H27.8332V41.8115H24.5383ZM44.3076 32.7973V41.8115H41.0128V32.7973H44.3076ZM39.0358 32.7973V41.8115H35.4114V32.7973H39.0358ZM33.4345 32.7973V41.8115H29.8101V32.7973H33.4345ZM21.9024 30.8637L34.423 21.8341L46.9422 30.8637H21.9024ZM21.9024 46.0008C21.9024 44.7556 22.9357 43.745 24.2088 43.745H44.6371C45.9103 43.745 46.9436 44.7556 46.9436 46.0008V46.9676H21.9024V46.0008Z" fill="#3C51E3"/>
<circle cx="43.6331" cy="46.3257" r="7.5" fill="#F0F4E5"/>
<path d="M49.6883 40.9371C49.8761 40.7535 50.126 40.6521 50.3853 40.6541C50.6446 40.6561 50.893 40.7614 51.0781 40.9479C51.2632 41.1343 51.3705 41.3873 51.3773 41.6534C51.3842 41.9195 51.2901 42.1779 51.1148 42.3742L44.6636 50.326C44.5721 50.4271 44.4617 50.5083 44.339 50.5646C44.2163 50.621 44.0837 50.6513 43.9493 50.6539C43.8149 50.6564 43.6814 50.6311 43.5567 50.5795C43.432 50.5279 43.3188 50.4509 43.2237 50.3534L39.6959 46.7319C39.5977 46.638 39.5189 46.5246 39.4642 46.3987C39.4096 46.2728 39.3802 46.1369 39.3778 45.999C39.3755 45.8612 39.4002 45.7243 39.4505 45.5965C39.5008 45.4687 39.5756 45.3526 39.6706 45.2551C39.7655 45.1576 39.8786 45.0808 40.0031 45.0292C40.1276 44.9775 40.261 44.9522 40.3953 44.9546C40.5295 44.957 40.6619 44.9872 40.7846 45.0433C40.9072 45.0994 41.0176 45.1803 41.1092 45.2812L43.901 48.1457L49.6629 40.9672C49.6713 40.9567 49.6802 40.9466 49.6896 40.9371H49.6883Z" fill="#3C51E3"/>
<path d="M65.5052 21.7454C63.2123 16.317 59.6194 11.5759 55.0625 7.96553C50.5056 4.35517 45.1337 1.9935 39.4491 1.10141C33.7645 0.209321 27.953 0.81596 22.5581 2.86459C17.1632 4.91322 12.3612 8.3369 8.60113 12.8154C4.84108 17.294 2.24587 22.681 1.05822 28.4728C-0.129438 34.2645 0.129269 40.2718 1.81014 45.9326C3.49102 51.5934 6.53914 56.723 10.6694 60.8414C14.7997 64.9599 19.8772 67.9327 25.4271 69.4818L25.8354 67.9316C20.5403 66.4535 15.6958 63.6171 11.755 59.6877C7.81428 55.7583 4.90604 50.8641 3.3023 45.4631C1.69857 40.062 1.45173 34.3305 2.58488 28.8045C3.71803 23.2786 6.19415 18.1387 9.78165 13.8657C13.3691 9.59271 17.9508 6.32615 23.0981 4.37153C28.2455 2.41692 33.7903 1.83812 39.214 2.68927C44.6377 3.54042 49.7631 5.7937 54.1108 9.23839C58.4586 12.6831 61.8866 17.2066 64.0743 22.3859L65.5052 21.7454Z" fill="#6E9500"/>
</svg>
