<svg width="19" height="16" viewBox="0 0 19 16" fill="none" xmlns="http://www.w3.org/2000/svg">
<path d="M13.2685 1.28842C11.6258 1.28842 10.2011 2.18403 9.5 3.49233C8.79888 2.18403 7.37416 1.28842 5.73146 1.28842C3.39438 1.28842 1.5 3.1016 1.5 5.33843C1.5 9.75502 9.5 14.7621 9.5 14.7621C9.5 14.7621 17.5 9.75502 17.5 5.33843C17.5 3.1016 15.6056 1.28842 13.2685 1.28842Z" fill="#212325" fill-opacity="0.4"/>
<path d="M9.5 14.7621L9.23473 15.1859L9.5 15.352L9.76527 15.1859L9.5 14.7621ZM9.5 14.7621C9.76527 15.1859 9.76538 15.1859 9.76552 15.1858L9.76596 15.1855L9.76739 15.1846L9.7724 15.1815L9.79091 15.1697C9.80697 15.1595 9.83038 15.1446 9.86065 15.1251C9.92118 15.0861 10.0092 15.0288 10.1207 14.9546C10.3437 14.8062 10.6612 14.59 11.0416 14.3169C11.8016 13.7713 12.8171 12.9957 13.8349 12.0778C14.8504 11.1618 15.8814 10.0924 16.662 8.95747C17.4378 7.82937 18 6.58784 18 5.33843C18 2.80503 15.8609 0.788422 13.2685 0.788422C11.7363 0.788422 10.3669 1.48985 9.5 2.58513C8.6331 1.48985 7.26373 0.788422 5.73146 0.788422C3.13912 0.788422 1 2.80503 1 5.33843C1 6.58784 1.56217 7.82937 2.33803 8.95747C3.11856 10.0924 4.14957 11.1618 5.16512 12.0778C6.18288 12.9957 7.19844 13.7713 7.95841 14.3169C8.33883 14.59 8.65626 14.8062 8.87929 14.9546C8.99083 15.0288 9.07882 15.0861 9.13935 15.1251C9.16962 15.1446 9.19303 15.1595 9.20909 15.1697L9.2276 15.1815L9.23261 15.1846L9.23404 15.1855L9.23447 15.1858C9.23462 15.1859 9.23473 15.1859 9.5 14.7621Z" stroke="#212325" stroke-opacity="0.4"/>
</svg>
